<?xml version="1.0" standalone="no"?>
<!DOCTYPE svg PUBLIC "-//W3C//DTD SVG 20010904//EN"
 "http://www.w3.org/TR/2001/REC-SVG-20010904/DTD/svg10.dtd">
<svg version="1.0" xmlns="http://www.w3.org/2000/svg"
 width="128.000000pt" height="128.000000pt" viewBox="0 0 128.000000 128.000000"
 preserveAspectRatio="xMidYMid meet">
<metadata>
Created by potrace 1.11, written by Peter Selinger 2001-2013
</metadata>
<g transform="translate(0.000000,128.000000) scale(0.100000,-0.100000)"
fill="#000000" stroke="none">
<path d="M578 1244 c-54 -36 -98 -93 -98 -128 0 -9 -12 -21 -27 -26 -174 -63
-311 -215 -357 -395 -15 -57 -17 -210 -3 -260 3 -11 9 -33 13 -50 11 -45 62
-134 107 -188 41 -50 137 -123 197 -150 95 -43 253 -59 349 -35 20 5 43 10 52
12 43 11 152 73 198 113 67 59 150 184 167 253 2 8 8 33 14 55 19 74 10 203
-19 291 -34 98 -68 153 -144 227 -61 59 -86 76 -171 113 -39 17 -51 28 -61 57
-15 43 -50 87 -90 114 -55 36 -68 36 -127 -3z"/>
</g>
</svg>
